<svg xmlns="http://www.w3.org/2000/svg" xmlns:xlink="http://www.w3.org/1999/xlink" width="540" zoomAndPan="magnify" viewBox="0 0 404.88 404.99999" height="540" preserveAspectRatio="xMidYMid meet" version="1.0"><defs><clipPath id="b4ba6625e8"><path d="M 0 0.0585938 L 404.761719 0.0585938 L 404.761719 404.9375 L 0 404.9375 Z M 0 0.0585938 " clip-rule="nonzero"/></clipPath><clipPath id="d09f7cbec3"><path d="M 202.441406 0.0585938 C 90.636719 0.0585938 0 90.695312 0 202.5 C 0 314.304688 90.636719 404.941406 202.441406 404.941406 C 314.246094 404.941406 404.878906 314.304688 404.878906 202.5 C 404.878906 90.695312 314.246094 0.0585938 202.441406 0.0585938 Z M 202.441406 0.0585938 " clip-rule="nonzero"/></clipPath></defs><g clip-path="url(#b4ba6625e8)"><g clip-path="url(#d09f7cbec3)"><path fill="#ffff00" d="M 0 0.0585938 L 404.878906 0.0585938 L 404.878906 404.941406 L 0 404.941406 Z M 0 0.0585938 " fill-opacity="1" fill-rule="nonzero"/><path stroke-linecap="butt" transform="matrix(0.749778, 0, 0, 0.749778, 0, 0.059995)" fill="none" stroke-linejoin="miter" d="M 270.001887 -0.00186889 C 120.884781 -0.00186889 0 120.882912 0 270.000018 C 0 419.117124 120.884781 540.001905 270.001887 540.001905 C 419.118993 540.001905 539.998564 419.117124 539.998564 270.000018 C 539.998564 120.882912 419.118993 -0.00186889 270.001887 -0.00186889 Z M 270.001887 -0.00186889 " stroke="#ffe000" stroke-width="60" stroke-opacity="1" stroke-miterlimit="4"/></g></g></svg>