<svg xmlns="http://www.w3.org/2000/svg" xmlns:xlink="http://www.w3.org/1999/xlink" width="1080" zoomAndPan="magnify" viewBox="0 0 810 809.999993" height="1080" preserveAspectRatio="xMidYMid meet" version="1.0"><defs><clipPath id="491e5e4d10"><path d="M 202.5 0 L 607.5 0 L 607.5 405 L 202.5 405 Z M 202.5 0 " clip-rule="nonzero"/></clipPath><clipPath id="ed66889dd6"><path d="M 405 0 C 293.164062 0 202.5 90.664062 202.5 202.5 C 202.5 314.335938 293.164062 405 405 405 C 516.835938 405 607.5 314.335938 607.5 202.5 C 607.5 90.664062 516.835938 0 405 0 Z M 405 0 " clip-rule="nonzero"/></clipPath><clipPath id="8699485ed4"><path d="M 283.5 81 L 526.5 81 L 526.5 324 L 283.5 324 Z M 283.5 81 " clip-rule="nonzero"/></clipPath><clipPath id="c49ed343d6"><path d="M 405 81 C 337.898438 81 283.5 135.398438 283.5 202.5 C 283.5 269.601562 337.898438 324 405 324 C 472.101562 324 526.5 269.601562 526.5 202.5 C 526.5 135.398438 472.101562 81 405 81 Z M 405 81 " clip-rule="nonzero"/></clipPath><clipPath id="349b584c12"><path d="M 364.714844 162.214844 L 445.285156 162.214844 L 445.285156 242.785156 L 364.714844 242.785156 Z M 364.714844 162.214844 " clip-rule="nonzero"/></clipPath><clipPath id="5a4933f238"><path d="M 405 162.214844 C 382.75 162.214844 364.714844 180.25 364.714844 202.5 C 364.714844 224.75 382.75 242.785156 405 242.785156 C 427.25 242.785156 445.285156 224.75 445.285156 202.5 C 445.285156 180.25 427.25 162.214844 405 162.214844 Z M 405 162.214844 " clip-rule="nonzero"/></clipPath></defs><g clip-path="url(#491e5e4d10)"><g clip-path="url(#ed66889dd6)"><path stroke-linecap="butt" transform="matrix(0.75, 0, 0, 0.75, 202.499993, 0.00002)" fill="none" stroke-linejoin="miter" d="M 270.000023 -0.0000266667 C 120.885432 -0.0000266667 0.00000891667 120.885396 0.00000891667 269.999987 C 0.00000891667 419.114578 120.885432 540.000001 270.000023 540.000001 C 419.114613 540.000001 540.000036 419.114578 540.000036 269.999987 C 540.000036 120.885396 419.114613 -0.0000266667 270.000023 -0.0000266667 Z M 270.000023 -0.0000266667 " stroke="#ff00aa" stroke-width="120" stroke-opacity="1" stroke-miterlimit="4"/></g></g><path stroke-linecap="butt" transform="matrix(0.000000001309, -0.75, 0.75, 0.000000001309, 389.995911, 809.995875)" fill="none" stroke-linejoin="miter" d="M -0.000291298 20.000245 L 572.994529 20.000244 " stroke="#ff00aa" stroke-width="40" stroke-opacity="1" stroke-miterlimit="4"/><g clip-path="url(#8699485ed4)"><g clip-path="url(#c49ed343d6)"><path stroke-linecap="butt" transform="matrix(0.75, 0, 0, 0.75, 283.499989, 81.000016)" fill="none" stroke-linejoin="miter" d="M 162.000023 -0.0000212333 C 72.531268 -0.0000212333 0.00001435 72.531232 0.00001435 161.999987 C 0.00001435 251.468741 72.531268 323.999995 162.000023 323.999995 C 251.468777 323.999995 324.000031 251.468741 324.000031 161.999987 C 324.000031 72.531232 251.468777 -0.0000212333 162.000023 -0.0000212333 Z M 162.000023 -0.0000212333 " stroke="#ff00aa" stroke-width="120" stroke-opacity="1" stroke-miterlimit="4"/></g></g><g clip-path="url(#349b584c12)"><g clip-path="url(#5a4933f238)"><path fill="#ff00aa" d="M 364.714844 162.214844 L 445.285156 162.214844 L 445.285156 242.785156 L 364.714844 242.785156 Z M 364.714844 162.214844 " fill-opacity="1" fill-rule="nonzero"/></g></g></svg>